<svg width="20" height="20" viewBox="0 0 20 20" fill="none" xmlns="http://www.w3.org/2000/svg">
<path d="M0 18.3333H11.6667V20H0V18.3333Z" fill="#ECBB79"/>
<path d="M9.99984 16.6531C9.99984 16.4321 9.91204 16.2201 9.75576 16.0638C9.59948 15.9076 9.38752 15.8198 9.1665 15.8198H2.49984C2.27882 15.8198 2.06686 15.9076 1.91058 16.0638C1.7543 16.2201 1.6665 16.4321 1.6665 16.6531V17.5H9.99984V16.6531Z" fill="#ECBB79"/>
<path d="M11.3388 9.83973C10.9505 10.2536 10.6249 10.722 10.3723 11.2301L17.2315 18.0893C17.3878 18.2455 17.5997 18.3333 17.8206 18.3333C18.0416 18.3333 18.2535 18.2455 18.4098 18.0893L19.5884 16.9108C19.6657 16.8334 19.7271 16.7415 19.769 16.6404C19.8109 16.5393 19.8325 16.4309 19.8325 16.3215C19.8325 16.2121 19.8109 16.1037 19.769 16.0026C19.7271 15.9015 19.6657 15.8096 19.5884 15.7322L12.7292 8.87494C12.2201 9.1253 11.7515 9.4505 11.3388 9.83973Z" fill="#ECBB79"/>
<path d="M7.21398 5.71493C6.5838 6.29976 5.85431 6.76744 5.05981 7.09597L9.3669 11.403C9.69838 10.6099 10.1665 9.88116 10.75 9.24993C11.3803 8.66513 12.1097 8.19739 12.9042 7.86868L8.5969 3.56244C8.2653 4.35526 7.79724 5.08379 7.21398 5.71493Z" fill="#ECBB79"/>
<path d="M10.1589 0.412858L8.98052 1.59119C8.65514 1.91658 8.65514 2.44414 8.98052 2.76953L13.6939 7.48286C14.0192 7.80825 14.5468 7.80825 14.8722 7.48286L16.0505 6.30453C16.3759 5.97914 16.3759 5.45158 16.0505 5.12619L11.3372 0.412858C11.0118 0.0874703 10.4842 0.0874702 10.1589 0.412858Z" fill="#ECBB79"/>
<path d="M3.08781 7.48262L1.90948 8.66096C1.58409 8.98634 1.58409 9.5139 1.90948 9.83929L6.62281 14.5526C6.9482 14.878 7.47575 14.878 7.80114 14.5526L8.97947 13.3743C9.30486 13.0489 9.30486 12.5213 8.97947 12.196L4.26614 7.48262C3.94076 7.15724 3.4132 7.15724 3.08781 7.48262Z" fill="#ECBB79"/>
</svg>
