<svg width="20" height="20" viewBox="0 0 20 20" fill="none" xmlns="http://www.w3.org/2000/svg">
<path d="M2.91471 7.17444L2.17407 15.87H5.65186L4.91195 7.17444H2.91471Z" fill="#ECBB79"/>
<path d="M15.0881 7.17444L14.3481 15.87H17.8259L17.0853 7.17444H15.0881Z" fill="#ECBB79"/>
<path d="M19.0905 16.7396H0.909424V18.4782H19.0905V16.7396Z" fill="#ECBB79"/>
<path d="M20 18.913H0V19.7826H20V18.913Z" fill="#ECBB79"/>
<path d="M7.39112 6.95413L8.89412 8.43394L8.26147 15.87H11.7393L11.1052 8.43322L12.6082 6.9534V6.30408H19.5659V4.85253L10 0.217407L0.434814 4.85253V6.30408H7.39184L7.39112 6.95413ZM11.7378 6.59033L10 8.30205L8.26147 6.59033V4.13001H11.7393V6.59033H11.7378Z" fill="#ECBB79"/>
</svg>
