<svg width="16" height="14" viewBox="0 0 16 14" fill="none" xmlns="http://www.w3.org/2000/svg">
<path d="M9.99935 0H3.99935C3.44602 0 2.97268 0.333333 2.77268 0.813333L0.759349 5.51333C0.699349 5.66667 0.666016 5.82667 0.666016 6V7.33333C0.666016 8.06667 1.26602 8.66667 1.99935 8.66667H6.20602L5.57268 11.7133L5.55268 11.9267C5.55268 12.2 5.66602 12.4533 5.84602 12.6333L6.55268 13.3333L10.9393 8.94C11.186 8.7 11.3327 8.36667 11.3327 8V1.33333C11.3327 0.6 10.7327 0 9.99935 0ZM9.99935 8L7.10602 10.8933L7.84602 7.33333H1.99935V6L3.99935 1.33333H9.99935V8ZM12.666 0H15.3327V8H12.666V0Z" fill="#E7AA59"/>
</svg>
