<svg width="48" height="48" viewBox="0 0 48 48" fill="none" xmlns="http://www.w3.org/2000/svg">
<g clip-path="url(#clip0)">
<path d="M44.4701 14.9699H44.4397C44.4349 13.0429 43.3521 12.7357 41.7144 12.2713L41.6814 12.2618C41.1592 12.1124 40.6337 11.9868 40.0898 11.8799C40.0972 11.7469 40.1012 11.6107 40.1012 11.4708C40.0986 9.61265 39.4669 8.01048 38.2749 6.8375C37.0309 5.61326 35.2244 4.92918 33.3058 4.95262C31.3934 4.92442 29.5833 5.61289 28.3396 6.83677C27.1472 8.01011 26.5155 9.61265 26.5129 11.4708C26.5129 11.7019 26.5236 11.9227 26.5433 12.1351C25.5103 12.3695 24.6577 12.6507 23.9985 12.9748C22.3286 12.1542 19.4513 11.6125 15.6281 11.4045C15.2391 11.3844 14.9033 11.6825 14.8821 12.0732C14.8608 12.464 15.1604 12.798 15.5511 12.8192C20.0955 13.0668 22.2821 13.7329 23.2903 14.2064V40.4399C21.3944 39.7126 18.438 39.204 15.3157 39.0959C12.9606 39.0139 8.66052 39.1058 4.97717 40.4875V14.9828C4.97717 14.3445 5.11304 14.2372 5.19434 14.1727C5.42944 13.9867 5.94946 13.8391 6.66907 13.6347L6.70459 13.6245C8.26465 13.1817 9.84009 12.9499 12.1425 12.8247C12.5332 12.8034 12.8324 12.4695 12.8112 12.0787C12.7899 11.688 12.4537 11.3869 12.0652 11.4096C9.65076 11.5411 7.9856 11.7879 6.3175 12.2615L6.28198 12.2717C4.64648 12.7361 3.56506 13.0437 3.5603 14.9699H3.52734C1.5824 14.9699 0 16.5531 0 18.4988V43.1598C0 45.4112 1.62012 47.692 4.7168 47.6949L23.9978 47.7191H23.9985H23.9993L31.7604 47.711C32.1515 47.7107 32.4683 47.3932 32.4679 47.0017C32.4675 46.6106 32.1504 46.2942 31.7596 46.2942C31.7593 46.2942 31.7589 46.2942 31.7589 46.2942L24.7072 46.3011V44.1416H42.2699C43.4663 44.1416 44.4397 43.1517 44.4397 41.9352V16.3868H44.4697C45.635 16.3868 46.5831 17.3342 46.5831 18.4988V43.1598C46.5831 44.6598 45.5497 46.2759 43.2814 46.2781L35.0424 46.2887C34.6509 46.289 34.3341 46.6069 34.3348 46.998C34.3352 47.3891 34.6523 47.7055 35.0435 47.7055H35.0442L43.2828 47.6949C46.3799 47.692 48 45.4112 48 43.1598V18.4988C48 16.5531 46.4165 14.9699 44.4701 14.9699ZM29.3331 7.84715C30.3109 6.88511 31.7574 6.34385 33.2952 6.36949H33.3164C34.8549 6.34312 36.3032 6.88548 37.281 7.84751C38.1969 8.74876 38.6821 10.0023 38.6843 11.4726C38.6865 13.3143 37.8798 14.2862 36.9459 15.4116C36.1315 16.3927 35.2211 17.4898 35.0208 19.2059H34.014V14.2969H35.1259C35.517 14.2969 35.8341 13.9797 35.8341 13.5886C35.8341 13.1971 35.517 12.88 35.1259 12.88H31.4139C31.0225 12.88 30.7053 13.1971 30.7053 13.5886C30.7053 13.9797 31.0225 14.2969 31.4139 14.2969H32.5972V19.2059H31.5934C31.3931 17.4898 30.4827 16.3927 29.6682 15.4116C28.734 14.2862 27.9276 13.3143 27.9298 11.4726C27.932 10.0019 28.4172 8.74839 29.3331 7.84715ZM31.0953 20.6228H35.5188C36.0879 20.6228 36.5508 21.0853 36.5508 21.6537C36.5508 22.2206 36.0879 22.682 35.5188 22.682H31.0953C30.5262 22.682 30.0634 22.2206 30.0634 21.6537C30.0634 21.0853 30.5262 20.6228 31.0953 20.6228ZM28.578 16.3165C29.3562 17.254 30.0392 18.0791 30.1864 19.3813C29.2852 19.7428 28.6465 20.625 28.6465 21.6537C28.6465 23.0021 29.7451 24.0989 31.0953 24.0989H35.5188C36.869 24.0989 37.9677 23.0021 37.9677 21.6537C37.9677 20.625 37.329 19.7428 36.4277 19.3813C36.575 18.0791 37.2579 17.2536 38.0361 16.3161C38.7246 15.487 39.4779 14.5785 39.8558 13.2784C40.3458 13.3758 40.8212 13.4894 41.2928 13.6245L41.3276 13.6344C42.0487 13.8387 42.5695 13.9867 42.8057 14.1731C42.887 14.2372 43.0228 14.3445 43.0228 14.9828V40.4875C39.338 39.1058 35.0383 39.0143 32.6825 39.0959C29.5605 39.204 26.6034 39.713 24.7072 40.4399V14.2068C25.1506 13.998 25.8252 13.7527 26.8348 13.5216C27.2318 14.6935 27.9331 15.5398 28.578 16.3165ZM23.2903 41.9773V42.7247H5.72717C5.33752 42.7247 5.01672 42.4101 4.98083 42.0099C10.8442 39.5581 20.1427 40.4905 23.2903 41.9773ZM1.41687 43.1598V18.4988C1.41687 17.3342 2.36389 16.3868 3.52734 16.3868H3.5603V41.9355C3.5603 43.1521 4.53259 44.1416 5.72754 44.1416H23.2903V46.3011L4.71826 46.2781C2.45032 46.2759 1.41687 44.6598 1.41687 43.1598ZM42.2699 42.7247H24.7072V41.9776C27.8558 40.4912 37.1561 39.5592 43.0192 42.0099C42.9818 42.4043 42.6541 42.7247 42.2699 42.7247Z" fill="#E7AA59"/>
<path d="M20.5519 28.7717C19.4394 28.1261 17.2333 27.6723 14.794 27.5877C13.1677 27.5317 10.0706 27.6064 7.60419 28.7409C7.2486 28.9043 7.09296 29.325 7.25629 29.6806C7.37567 29.9403 7.63239 30.093 7.90045 30.093C7.9997 30.093 8.10004 30.0721 8.19598 30.0282C11.9013 28.3242 18.1335 29.0064 19.8404 29.997C20.1788 30.1937 20.6124 30.0787 20.809 29.74C21.0053 29.4019 20.8903 28.9683 20.5519 28.7717Z" fill="#E7AA59"/>
<path d="M20.5519 33.9715C19.4394 33.3259 17.2333 32.8722 14.794 32.7876C13.1677 32.7312 10.0706 32.8063 7.60419 33.9408C7.2486 34.1041 7.09296 34.5249 7.25629 34.8805C7.37567 35.1401 7.63239 35.2928 7.90045 35.2928C7.9997 35.2928 8.10004 35.272 8.19598 35.228C11.9013 33.524 18.1335 34.2063 19.8404 35.1969C20.1788 35.3932 20.6124 35.2786 20.809 34.9398C21.0053 34.6018 20.8903 34.1682 20.5519 33.9715Z" fill="#E7AA59"/>
<path d="M20.5519 23.5719C19.439 22.9259 17.2325 22.4718 14.7939 22.3872C13.1669 22.3304 10.0694 22.4051 7.60375 23.5411C7.24815 23.7048 7.09288 24.1256 7.25658 24.4812C7.37596 24.7405 7.63268 24.8932 7.90038 24.8932C7.99962 24.8932 8.10033 24.8723 8.19664 24.8284C11.8994 23.1225 18.1323 23.8055 19.8403 24.7972C20.1787 24.9935 20.6123 24.8785 20.8089 24.5401C21.0052 24.2018 20.8902 23.7682 20.5519 23.5719Z" fill="#E7AA59"/>
<path d="M28.1604 29.9971C29.8658 29.0054 36.0962 28.3228 39.8015 30.0282C39.8974 30.0725 39.9981 30.093 40.0974 30.093C40.3655 30.093 40.6218 29.9403 40.7416 29.6807C40.9049 29.3254 40.7492 28.9047 40.394 28.741C37.9291 27.6064 34.8316 27.5314 33.2053 27.5881C30.7652 27.6724 28.5592 28.1261 27.4485 28.7721C27.1101 28.9688 26.9951 29.4023 27.1917 29.7407C27.3884 30.0791 27.822 30.1937 28.1604 29.9971Z" fill="#E7AA59"/>
<path d="M40.3918 33.9408C37.9268 32.8063 34.8294 32.7312 33.2031 32.7876C30.763 32.8722 28.5573 33.3259 27.4462 33.9719C27.1079 34.1686 26.9932 34.6022 27.1899 34.9405C27.3865 35.2789 27.8201 35.3935 28.1585 35.1969C29.864 34.2052 36.0939 33.5226 39.7996 35.228C39.8956 35.2723 39.9963 35.2932 40.0951 35.2932C40.3636 35.2932 40.6199 35.1401 40.7393 34.8805C40.903 34.5253 40.7474 34.1045 40.3918 33.9408Z" fill="#E7AA59"/>
<path d="M33.3118 3.55701C33.7032 3.55701 34.0204 3.23987 34.0204 2.84875V0.989868C34.0204 0.598389 33.7032 0.28125 33.3118 0.28125C32.9207 0.28125 32.6035 0.598389 32.6035 0.989868V2.84875C32.6035 3.23987 32.9207 3.55701 33.3118 3.55701Z" fill="#E7AA59"/>
<path d="M26.7815 5.00719C26.9199 5.14525 27.1012 5.21446 27.2825 5.21446C27.4637 5.21446 27.645 5.14525 27.7834 5.00682C28.0603 4.72997 28.0599 4.28136 27.7831 4.00487L26.4655 2.68761C26.1886 2.41112 25.74 2.41112 25.4635 2.68797C25.1866 2.96446 25.1866 3.41307 25.4635 3.68993L26.7815 5.00719Z" fill="#E7AA59"/>
<path d="M39.3393 5.21446C39.521 5.21446 39.7023 5.14525 39.8407 5.00646L41.1557 3.68919C41.4322 3.41234 41.4319 2.96373 41.155 2.68724C40.8782 2.41112 40.4296 2.41112 40.1531 2.68834L38.838 4.00523C38.5615 4.28209 38.5619 4.7307 38.8387 5.00719C38.9772 5.14525 39.1584 5.21446 39.3393 5.21446Z" fill="#E7AA59"/>
<path d="M7.25629 19.2781C7.37567 19.5377 7.63239 19.6908 7.90045 19.6908C7.9997 19.6908 8.10004 19.6699 8.19598 19.626C11.8976 17.9235 18.1317 18.6053 19.8411 19.5952C20.1795 19.7915 20.6131 19.6758 20.8094 19.3374C21.0053 18.9987 20.89 18.5651 20.5512 18.3691C19.4383 17.7246 17.2322 17.2712 14.794 17.1866C13.1673 17.1302 10.0699 17.2046 7.60419 18.3384C7.2486 18.5021 7.09296 18.9229 7.25629 19.2781Z" fill="#E7AA59"/>
</g>
<defs>
<clipPath id="clip0">
<rect width="48" height="48" fill="white"/>
</clipPath>
</defs>
</svg>
