<svg width="54" height="54" viewBox="0 0 54 54" fill="none" xmlns="http://www.w3.org/2000/svg">
<path d="M16.249 14.993L16.9118 14.3302L20.2259 17.6443L19.5631 18.3071L16.249 14.993Z" fill="#ECBB79"/>
<path d="M6.0791 4.82227L6.74258 4.15879L10.0566 7.47285L9.39317 8.13633L6.0791 4.82227Z" fill="#ECBB79"/>
<path d="M9.62275 18.9704C10.7398 20.0841 12.2201 20.7591 13.7935 20.8722C15.3669 20.9853 16.9285 20.5289 18.1934 19.5863L14.8596 16.2526C13.9574 16.8462 12.8782 17.1109 11.8037 17.0022C10.7292 16.8934 9.7249 16.4178 8.95994 15.6554L8.73306 15.4285C7.97019 14.6638 7.49425 13.6595 7.38547 12.5848C7.27669 11.5102 7.54171 10.4309 8.13588 9.52882L4.80213 6.19507C3.85937 7.45987 3.40287 9.02151 3.51594 10.5949C3.62902 12.1684 4.30414 13.6487 5.41807 14.7657L9.62275 18.9704Z" fill="#ECBB79"/>
<path d="M1.6875 25.125H22.3125C22.5611 25.125 22.7996 25.0262 22.9754 24.8504C23.1512 24.6746 23.25 24.4361 23.25 24.1875V1.6875C23.25 1.43886 23.1512 1.2004 22.9754 1.02459C22.7996 0.848772 22.5611 0.75 22.3125 0.75H1.6875C1.43886 0.75 1.2004 0.848772 1.02459 1.02459C0.848772 1.2004 0.75 1.43886 0.75 1.6875V24.1875C0.75 24.4361 0.848772 24.6746 1.02459 24.8504C1.2004 25.0262 1.43886 25.125 1.6875 25.125ZM4.09219 4.15875L6.08156 2.17031C6.25737 1.99456 6.49578 1.89583 6.74438 1.89583C6.99297 1.89583 7.23138 1.99456 7.40719 2.17031L12.0469 6.81C12.2226 6.98581 12.3214 7.22422 12.3214 7.47281C12.3214 7.7214 12.2226 7.95982 12.0469 8.13563L10.0584 10.125C9.79722 10.3862 9.59001 10.6962 9.44864 11.0375C9.30727 11.3788 9.23451 11.7445 9.23451 12.1139C9.23451 12.4833 9.30727 12.8491 9.44864 13.1903C9.59001 13.5316 9.79722 13.8416 10.0584 14.1028L10.2853 14.3297C10.5465 14.5909 10.8566 14.7981 11.1978 14.9395C11.5391 15.0809 11.9048 15.1536 12.2742 15.1536C12.6436 15.1536 13.0094 15.0809 13.3506 14.9395C13.6919 14.7981 14.002 14.5909 14.2631 14.3297L16.2525 12.3413C16.4283 12.1655 16.6667 12.0668 16.9153 12.0668C17.1639 12.0668 17.4023 12.1655 17.5781 12.3413L22.2178 16.9819C22.3936 17.1577 22.4923 17.3961 22.4923 17.6447C22.4923 17.8933 22.3936 18.1317 22.2178 18.3075L20.2294 20.2959C18.6458 21.876 16.5001 22.7634 14.2631 22.7634C12.0261 22.7634 9.88043 21.876 8.29688 20.2959L4.09219 16.0913C2.51212 14.5077 1.62474 12.362 1.62474 10.125C1.62474 7.88798 2.51212 5.74231 4.09219 4.15875Z" fill="#ECBB79"/>
<path d="M19.4996 45.5436V38.4608L15.5049 42.0083L19.4996 45.5436Z" fill="#ECBB79"/>
<path d="M17.9684 37.3125H6.03027L11.9956 42.6094L17.9684 37.3125Z" fill="#ECBB79"/>
<path d="M13.2493 44.0119C12.9053 44.3212 12.4589 44.492 11.9963 44.4911C11.5338 44.4902 11.088 44.3178 10.7452 44.0072L9.90145 43.2572L6.03613 46.6875H17.963L14.093 43.2619L13.2493 44.0119Z" fill="#ECBB79"/>
<path d="M4.5 38.4608V45.5436L8.49469 42.0083L4.5 38.4608Z" fill="#ECBB79"/>
<path d="M1.6875 53.25H22.3125C22.5611 53.25 22.7996 53.1512 22.9754 52.9754C23.1512 52.7996 23.25 52.5611 23.25 52.3125V31.6875C23.25 31.4389 23.1512 31.2004 22.9754 31.0246C22.7996 30.8488 22.5611 30.75 22.3125 30.75H1.6875C1.43886 30.75 1.2004 30.8488 1.02459 31.0246C0.848772 31.2004 0.75 31.4389 0.75 31.6875V52.3125C0.75 52.5611 0.848772 52.7996 1.02459 52.9754C1.2004 53.1512 1.43886 53.25 1.6875 53.25ZM2.625 36.375C2.625 36.1264 2.72377 35.8879 2.89959 35.7121C3.0754 35.5363 3.31386 35.4375 3.5625 35.4375H20.4375C20.6861 35.4375 20.9246 35.5363 21.1004 35.7121C21.2762 35.8879 21.375 36.1264 21.375 36.375V47.625C21.375 47.8736 21.2762 48.1121 21.1004 48.2879C20.9246 48.4637 20.6861 48.5625 20.4375 48.5625H3.5625C3.31386 48.5625 3.0754 48.4637 2.89959 48.2879C2.72377 48.1121 2.625 47.8736 2.625 47.625V36.375Z" fill="#ECBB79"/>
<path d="M42 13.875C43.0355 13.875 43.875 13.0355 43.875 12C43.875 10.9645 43.0355 10.125 42 10.125C40.9645 10.125 40.125 10.9645 40.125 12C40.125 13.0355 40.9645 13.875 42 13.875Z" fill="#ECBB79"/>
<path d="M52.3125 25.125C52.5611 25.125 52.7996 25.0262 52.9754 24.8504C53.1512 24.6746 53.25 24.4361 53.25 24.1875V1.6875C53.25 1.43886 53.1512 1.2004 52.9754 1.02459C52.7996 0.848772 52.5611 0.75 52.3125 0.75H31.6875C31.4389 0.75 31.2004 0.848772 31.0246 1.02459C30.8488 1.2004 30.75 1.43886 30.75 1.6875V24.1875C30.75 24.4361 30.8488 24.6746 31.0246 24.8504C31.2004 25.0262 31.4389 25.125 31.6875 25.125H36.375V24.2925C36.3653 23.5756 36.6229 22.8808 37.0977 22.3435C37.5724 21.8062 38.2302 21.4649 38.9428 21.3862C39.3537 21.3493 39.7677 21.4042 40.1548 21.5471C40.5418 21.6899 40.8923 21.9171 41.1806 22.2122C41.4425 22.4698 41.65 22.7774 41.7907 23.1167C41.9315 23.456 42.0026 23.8202 42 24.1875V25.125H52.3125ZM34.5 12C34.5 10.0109 35.2902 8.10322 36.6967 6.6967C38.1032 5.29018 40.0109 4.5 42 4.5C43.9891 4.5 45.8968 5.29018 47.3033 6.6967C48.7098 8.10322 49.5 10.0109 49.5 12V12.9375C49.5025 13.5146 49.3267 14.0783 48.9966 14.5516C48.6664 15.025 48.1981 15.3847 47.6557 15.5818C47.1133 15.7788 46.5233 15.8034 45.9664 15.6523C45.4094 15.5012 44.9128 15.1817 44.5444 14.7375C43.9128 15.3192 43.1001 15.6657 42.2431 15.7187C41.386 15.7718 40.5369 15.5281 39.8383 15.0287C39.1398 14.5293 38.6345 13.8046 38.4075 12.9765C38.1804 12.1484 38.2454 11.2674 38.5914 10.4815C38.9375 9.69569 39.5437 9.05297 40.3079 8.66143C41.0721 8.2699 41.9478 8.15343 42.7878 8.33161C43.6278 8.50979 44.3808 8.97175 44.9203 9.63982C45.4598 10.3079 45.7527 11.1413 45.75 12V12.9375C45.75 13.1861 45.8488 13.4246 46.0246 13.6004C46.2004 13.7762 46.4389 13.875 46.6875 13.875C46.9361 13.875 47.1746 13.7762 47.3504 13.6004C47.5262 13.4246 47.625 13.1861 47.625 12.9375V12C47.625 10.8875 47.2951 9.79994 46.677 8.87492C46.0589 7.94989 45.1804 7.22892 44.1526 6.80318C43.1248 6.37744 41.9938 6.26604 40.9026 6.48308C39.8115 6.70013 38.8092 7.23585 38.0225 8.02252C37.2359 8.80919 36.7001 9.81147 36.4831 10.9026C36.266 11.9938 36.3774 13.1248 36.8032 14.1526C37.2289 15.1804 37.9499 16.0589 38.8749 16.677C39.7999 17.2951 40.8875 17.625 42 17.625H45.75C45.9986 17.625 46.2371 17.7238 46.4129 17.8996C46.5887 18.0754 46.6875 18.3139 46.6875 18.5625C46.6875 18.8111 46.5887 19.0496 46.4129 19.2254C46.2371 19.4012 45.9986 19.5 45.75 19.5H42C40.0116 19.4978 38.1052 18.7069 36.6992 17.3008C35.2931 15.8948 34.5022 13.9884 34.5 12Z" fill="#ECBB79"/>
<path d="M37.9691 50.8622C38.108 51.0267 38.1861 51.2339 38.1903 51.4491L38.2306 53.25H49.5003V51.375C49.5006 51.1899 49.5554 51.009 49.6578 50.8547L51.3753 48.2813V36.375C51.3765 36.254 51.3532 36.1339 51.3068 36.0221C51.2604 35.9103 51.1919 35.809 51.1053 35.7244C51.0196 35.6335 50.9161 35.5611 50.8013 35.5117C50.6865 35.4624 50.5628 35.4371 50.4378 35.4375C50.1892 35.4375 49.9507 35.5363 49.7749 35.7121C49.5991 35.8879 49.5003 36.1264 49.5003 36.375V39.1875C49.5003 39.4362 49.4015 39.6746 49.2257 39.8505C49.0499 40.0263 48.8114 40.125 48.5628 40.125C48.3142 40.125 48.0757 40.0263 47.8999 39.8505C47.7241 39.6746 47.6253 39.4362 47.6253 39.1875V34.5C47.6265 34.379 47.6032 34.2589 47.5568 34.1471C47.5104 34.0353 47.4419 33.934 47.3553 33.8494C47.2696 33.7585 47.1661 33.6861 47.0513 33.6367C46.9365 33.5874 46.8128 33.5621 46.6878 33.5625C46.4392 33.5625 46.2007 33.6613 46.0249 33.8371C45.8491 34.0129 45.7503 34.2514 45.7503 34.5V39.1875C45.7503 39.4362 45.6515 39.6746 45.4757 39.8505C45.2999 40.0263 45.0614 40.125 44.8128 40.125C44.5642 40.125 44.3257 40.0263 44.1499 39.8505C43.9741 39.6746 43.8753 39.4362 43.8753 39.1875V32.625C43.8765 32.504 43.8532 32.3839 43.8068 32.2721C43.7604 32.1603 43.6919 32.059 43.6053 31.9744C43.5196 31.8835 43.4161 31.8111 43.3013 31.7617C43.1865 31.7124 43.0628 31.6871 42.9378 31.6875C42.6892 31.6875 42.4507 31.7863 42.2749 31.9621C42.0991 32.1379 42.0003 32.3764 42.0003 32.625V39.1875C42.0003 39.4362 41.9015 39.6746 41.7257 39.8505C41.5499 40.0263 41.3114 40.125 41.0628 40.125C40.8142 40.125 40.5757 40.0263 40.3999 39.8505C40.2241 39.6746 40.1253 39.4362 40.1253 39.1875V24.1875C40.1265 24.0665 40.1032 23.9464 40.0568 23.8346C40.0104 23.7228 39.9419 23.6215 39.8553 23.5369C39.7594 23.4355 39.6415 23.3573 39.5106 23.3086C39.3798 23.2598 39.2395 23.2417 39.1006 23.2557C38.857 23.2954 38.6362 23.4227 38.4797 23.6136C38.3232 23.8044 38.2416 24.0458 38.2503 24.2925V42.9375C38.2484 43.149 38.1751 43.3537 38.0422 43.5182C37.9094 43.6828 37.7248 43.7976 37.5184 43.844C37.3121 43.8903 37.0961 43.8656 36.9056 43.7737C36.7151 43.6818 36.5612 43.5282 36.4691 43.3379C36.4691 43.3379 33.5084 37.0566 33.4944 36.9975C33.4631 36.8797 33.4087 36.7693 33.3343 36.6728C33.26 36.5762 33.1671 36.4954 33.0612 36.435C32.843 36.3102 32.5842 36.2765 32.3412 36.3413L31.4844 36.5719L35.3281 47.7497L37.9691 50.8622Z" fill="#ECBB79"/>
</svg>
