<svg width="20" height="20" viewBox="0 0 20 20" fill="none" xmlns="http://www.w3.org/2000/svg">
<path d="M19.5806 3.37852C19.0214 2.02848 17.9699 0.976997 16.6198 0.417817C15.9507 0.140669 15.2471 0.00012207 14.5287 0.00012207C13.1792 0.00012207 11.8954 0.489575 10.8911 1.38262L8.1976 0.266919L7.53756 1.86036C5.92268 1.19563 4.0617 1.55739 2.80877 2.81036C1.55584 4.06329 1.19404 5.92426 1.85877 7.53915L0.265334 8.19918L1.38108 10.8928C-0.00669733 12.455 -0.387518 14.6809 0.416232 16.6215C1.26627 18.6737 3.25096 19.9998 5.47248 20C5.4726 20 5.47272 20 5.47283 20C6.19115 20 6.89475 19.8595 7.56401 19.5822C8.91405 19.0231 9.96557 17.9715 10.5247 16.6215C11.0839 15.2715 11.0839 13.7845 10.5247 12.4344C9.72096 10.4939 7.87768 9.18919 5.7917 9.06586L4.676 6.37227L2.99022 7.07055C2.51471 5.91118 2.77518 4.57586 3.67463 3.67637C4.57412 2.77688 5.90944 2.51641 7.06881 2.99192L6.37053 4.67766L9.06412 5.79336C9.18748 7.87934 10.4922 9.72262 12.4327 10.5264C13.1019 10.8036 13.8056 10.9442 14.5242 10.9442C14.5243 10.9442 14.5242 10.9442 14.5243 10.9442C16.7456 10.9442 18.7304 9.61797 19.5805 7.56567C20.1398 6.21559 20.1398 4.7286 19.5806 3.37852ZM3.17045 8.97504C3.46506 8.85305 3.80279 8.99293 3.92483 9.28754C4.04682 9.58215 3.90694 9.91989 3.61233 10.0419C3.31772 10.1639 2.97998 10.024 2.85795 9.72942C2.73596 9.43481 2.87584 9.09708 3.17045 8.97504ZM4.36541 11.86C4.7176 11.7141 5.08803 11.6401 5.46639 11.6401C6.64108 11.6401 7.6899 12.3398 8.1385 13.4228C8.43319 14.1342 8.43268 14.9189 8.13709 15.6324C7.84151 16.3459 7.28697 16.9012 6.57565 17.1959C6.22346 17.3418 5.85303 17.4157 5.47467 17.4157C4.29998 17.4157 3.25115 16.716 2.80256 15.6331C2.19322 14.1619 2.89436 12.4693 4.36541 11.86ZM10.0403 3.61395C9.91834 3.90856 9.58057 4.04844 9.28596 3.92641C8.99135 3.80442 8.85147 3.46665 8.9735 3.17204C9.09549 2.87743 9.43326 2.73754 9.72787 2.85958C10.0224 2.98161 10.1623 3.31934 10.0403 3.61395ZM17.1943 6.57719C16.7457 7.66016 15.6968 8.35989 14.5222 8.35989C14.1438 8.35989 13.7734 8.2859 13.4212 8.14004C11.9501 7.53071 11.249 5.83809 11.8584 4.36696C12.307 3.28403 13.3558 2.5843 14.5305 2.5843C14.9088 2.5843 15.2792 2.65829 15.6315 2.80415C17.1025 3.41352 17.8036 5.1061 17.1943 6.57719Z" fill="#ECBB79"/>
</svg>
