<svg width="20" height="20" viewBox="0 0 20 20" fill="none" xmlns="http://www.w3.org/2000/svg">
<path d="M4.14062 5.85938C3.81734 5.85938 3.55469 5.59672 3.55469 5.27344H2.38281C2.38281 6.03633 2.87414 6.68062 3.55469 6.92332V8.20312H4.72656V6.92332C5.40711 6.68062 5.89844 6.03633 5.89844 5.27344C5.89844 4.30414 5.10992 3.51562 4.14062 3.51562C3.81734 3.51562 3.55469 3.25297 3.55469 2.92969C3.55469 2.60641 3.81734 2.34375 4.14062 2.34375C4.46391 2.34375 4.72656 2.60641 4.72656 2.92969H5.89844C5.89844 2.1668 5.40711 1.5225 4.72656 1.2798V0H3.55469V1.2798C2.87414 1.5225 2.38281 2.1668 2.38281 2.92969C2.38281 3.89898 3.17133 4.6875 4.14062 4.6875C4.46391 4.6875 4.72656 4.95016 4.72656 5.27344C4.72656 5.59672 4.46391 5.85938 4.14062 5.85938Z" fill="#ECBB79"/>
<path d="M11.7578 7.61719C11.7578 8.58801 12.5448 9.375 13.5156 9.375H15.2734V11.8246L10.5859 12.762V10.5469H9.41406V12.9963L4.72656 13.9338V11.7188H6.48438C7.4552 11.7188 8.24219 10.9318 8.24219 9.96094V9.375H0V9.96094C0 10.9318 0.786992 11.7188 1.75781 11.7188H3.55469V15.3631L9.41406 14.1912V17.6562H4.72656V18.8281H2.38281V20H17.6172V18.8281H15.2734V17.6562H10.5859V13.9567L16.4453 12.7848V9.375H18.2031C19.1739 9.375 20 8.62707 20 7.65625V7.07031L11.7578 7.03125V7.61719Z" fill="#ECBB79"/>
<path d="M15.8594 5.85938C16.6421 5.85938 17.378 5.55437 17.9307 5.00105L17.1022 4.1725C16.7703 4.50437 16.3148 4.67031 15.8594 4.67031C15.0661 4.67031 14.4428 4.18281 14.2075 3.51559H16.4453V2.34375H14.2075C14.4424 1.67805 15.0638 1.1607 15.8594 1.1607C16.3148 1.1607 16.7703 1.35496 17.1022 1.68684L17.9307 0.858281C17.378 0.305 16.6187 0 15.8594 0C14.3797 0 13.2517 1.03898 12.9887 2.34375H11.7578V3.51562H12.9887C13.2598 4.85293 14.4405 5.85938 15.8594 5.85938Z" fill="#ECBB79"/>
</svg>
