<svg width="16" height="16" viewBox="0 0 16 16" fill="none" xmlns="http://www.w3.org/2000/svg">
<g clip-path="url(#clip0)">
<path d="M6.40003 4.09995C6.00003 3.69995 6.00003 3.19995 6.30003 2.89995L8.90003 0.299951C9.20003 -4.88311e-05 9.70003 -4.88311e-05 10.1 0.299951L10.2 0.399951C10.5 0.699951 10.5 1.19995 10.2 1.59995L7.60003 4.09995C7.30003 4.39995 6.70003 4.39995 6.40003 4.09995Z" fill="#ECBB79"/>
<path d="M12.0001 9.69995C11.6001 9.29995 11.6001 8.79995 11.9001 8.39995L14.5001 5.79995C14.8001 5.49995 15.3001 5.49995 15.7001 5.79995L15.8001 5.89995C16.1001 6.19995 16.1001 6.69995 15.8001 7.09995L13.2001 9.69995C12.8001 9.99995 12.3001 9.99995 12.0001 9.69995Z" fill="#ECBB79"/>
<path d="M10 7.7L8.3 6C7.9 5.6 7.9 5 8.3 4.6L10.6 2.3C11 1.9 11.6 1.9 12 2.3L13.7 4C14.1 4.4 14.1 5 13.7 5.4L11.4 7.7C11 8.1 10.4 8.1 10 7.7Z" fill="#ECBB79"/>
<path d="M4.00006 14.2C4.60006 13.6 8.00006 8.6 8.50006 8.9C8.90005 9.1 9.50006 8.4 9.50006 8.4L7.60006 6.5C7.60006 6.5 6.90006 7.1 7.10006 7.5C7.40006 8 2.40006 11.4 1.80006 12C1.80006 12 -0.999943 14.2 0.400057 15.6C1.80006 17 4.00006 14.2 4.00006 14.2Z" fill="#ECBB79"/>
</g>
<defs>
<clipPath id="clip0">
<rect width="16" height="16" fill="white"/>
</clipPath>
</defs>
</svg>
