<svg width="72" height="36" viewBox="0 0 72 36" fill="none" xmlns="http://www.w3.org/2000/svg">
<path d="M51.8143 32.2763C51.7961 32.1299 51.7594 31.9833 51.7136 31.846C51.3657 30.5094 50.5693 28.0653 50.2031 26.9759C50.1665 26.7836 50.1024 26.6006 50.02 26.4266C50.02 26.4266 49.4341 25.5478 48.9946 25.2823C48.9946 25.2823 48.7751 25.1632 48.7476 25.1542C47.8779 24.7422 45.1865 23.6621 45.1865 23.6621C43.8409 23.0762 42.4493 22.5817 41.0303 22.0782C40.7741 23.131 38.3664 30.1433 37.982 31.123L37.6798 24.6049C37.7805 24.4493 37.8537 24.2753 37.9362 24.1105L38.9432 22.1241C38.2382 22.71 37.1763 23.0853 35.9863 23.0853C34.8237 23.0853 33.7892 22.7283 33.0843 22.1607L34.0639 24.1014C34.1463 24.2663 34.2195 24.4493 34.3202 24.5957L34.0181 31.1136C33.6336 30.1433 31.226 23.131 30.9696 22.0691C29.5507 22.5726 28.1592 23.0761 26.8135 23.6527C26.8135 23.6527 24.1221 24.733 23.2524 25.145C23.225 25.1632 23.0327 25.2548 23.0052 25.2732C23.0052 25.2732 22.1997 25.9413 21.9799 26.4083C21.9799 26.4083 21.8335 26.7652 21.7969 26.9576C21.4398 28.0468 20.6434 30.4821 20.2864 31.8277C20.2406 31.965 20.204 32.1115 20.1857 32.2578C20.1674 32.386 20.1582 32.5233 20.1582 32.6516C20.1582 34.0887 21.3208 35.2515 22.7581 35.2515H25.2389C28.7909 35.2515 32.3337 35.2515 35.8856 35.2515C35.9314 35.2515 35.9772 35.2515 36.0229 35.2515C36.0687 35.2515 36.1145 35.2515 36.1602 35.2515C39.7123 35.2515 43.255 35.2515 46.807 35.2515H49.2879C50.725 35.2515 51.8877 34.0887 51.8877 32.6516C51.8419 32.5419 51.8325 32.4046 51.8143 32.2763Z" fill="#ECBB79"/>
<path d="M42.7695 10.0309C42.7695 9.57322 42.861 7.9071 42.861 7.53177C42.861 3.8242 39.8494 0.812378 36.1417 0.812378H36.1325H36.1234C36.0776 0.812378 36.041 0.812378 35.9952 0.812378C35.9495 0.812378 35.9129 0.812378 35.8672 0.812378H35.8579H35.8488C32.1412 0.812378 29.1293 3.8242 29.1293 7.53177C29.1293 7.91625 29.2209 9.57322 29.2209 10.0309C29.0561 10.0401 27.5549 9.67392 27.7196 11.4773C28.0584 15.2948 29.5231 14.5624 29.5597 14.5624C30.2738 16.8693 31.3906 18.3341 32.48 19.2679C34.1827 20.7233 35.8305 20.8882 35.8672 20.8882C35.9129 20.8882 35.9587 20.8882 36.0045 20.8882C36.0502 20.8882 36.096 20.8882 36.1418 20.8882C36.1692 20.8882 37.8079 20.7326 39.5015 19.2861C40.6 18.3525 41.7168 16.8785 42.4401 14.5624C42.4859 14.5624 43.9414 15.3039 44.2801 11.4773C44.4357 9.67392 42.9343 10.0401 42.7695 10.0309Z" fill="#ECBB79"/>
<path d="M19.9842 25.6484L20.0025 25.5935L20.03 25.5386C20.2314 25.099 20.561 24.6689 21.0645 24.1745C21.1743 24.0738 21.5039 23.7442 21.7694 23.5611C21.7877 23.5519 21.806 23.5337 21.8243 23.5247C21.8334 23.5153 21.8426 23.5063 21.8609 23.5063C22.044 23.3873 22.2637 23.2866 22.3369 23.25C22.932 22.9661 24.2136 22.4443 25.1016 22.0782C25.0741 22.069 25.0467 22.0506 25.01 22.0324C24.9826 22.0232 24.9551 22.0048 24.9277 21.9958C24.1678 21.6387 21.8243 20.6959 21.8243 20.6959C20.6525 20.1924 19.435 19.7529 18.1991 19.3136C17.9794 20.2382 15.8739 26.3441 15.5443 27.1956L15.2788 21.5107C15.3704 21.3734 15.4253 21.2267 15.4985 21.0803L16.3774 19.3501C15.764 19.863 14.8394 20.1924 13.805 20.1924C12.798 20.1924 11.8917 19.8812 11.2692 19.3867L12.1297 21.0803C12.2029 21.2268 12.2579 21.3825 12.3494 21.5107L12.0839 27.1956C11.7544 26.3533 9.64882 20.2382 9.42912 19.3136C8.19326 19.7529 6.97572 20.1833 5.80394 20.6959C5.80394 20.6959 3.46039 21.6387 2.70057 21.9958C2.67311 22.0049 2.64565 22.0233 2.61818 22.0324C2.5541 22.069 2.50833 22.0873 2.48086 22.1057C2.08722 22.3346 1.77597 22.6824 1.58373 23.0943C1.58373 23.0943 1.58373 23.0943 1.58373 23.1035C1.51049 23.2501 1.45556 23.4147 1.4281 23.5796C1.11685 24.5317 0.421106 26.6555 0.119008 27.818C0.0823903 27.9371 0.0457724 28.0653 0.0274634 28.1935C0.00915448 28.3033 0 28.4224 0 28.5413C0 29.7956 1.01615 30.8026 2.26116 30.8026H4.42161C7.51583 30.8026 10.61 30.8026 13.7043 30.8026C13.7409 30.8026 13.7866 30.8026 13.8233 30.8026C13.8599 30.8026 13.9057 30.8026 13.9423 30.8026C15.4161 30.8026 16.89 30.8026 18.3639 30.8026C18.7484 29.4476 19.3617 27.5434 19.7462 26.3991C19.8011 26.1152 19.911 25.8133 19.9842 25.6484Z" fill="#ECBB79"/>
<path d="M8.18437 12.7407C8.80688 14.7455 9.77725 16.0271 10.7293 16.8419C12.2123 18.1143 13.6496 18.2516 13.6771 18.2516C13.7137 18.2516 13.7594 18.2516 13.7961 18.2516C13.8327 18.2516 13.8785 18.2516 13.9151 18.2516C13.9425 18.2516 15.3706 18.1143 16.8445 16.851C17.8057 16.0363 18.7761 14.7547 19.4078 12.7315C19.4444 12.7315 20.7169 13.3815 21.019 10.0493C21.1563 8.47468 19.8472 8.79509 19.7099 8.78594C19.7099 8.38314 19.7923 6.93673 19.7923 6.60716C19.7923 3.37563 17.1649 0.748291 13.9334 0.748291H13.9242H13.9151C13.8785 0.748291 13.8418 0.748291 13.8052 0.748291C13.7686 0.748291 13.732 0.748291 13.6954 0.748291H13.6862H13.6771C10.4455 0.748291 7.81819 3.37563 7.81819 6.60716C7.81819 6.93673 7.90058 8.39229 7.90058 8.78594C7.75411 8.79509 6.44502 8.47468 6.59149 10.0493C6.87528 13.3906 8.14775 12.7407 8.18437 12.7407Z" fill="#ECBB79"/>
<path d="M71.9537 26.2525C71.9355 26.042 71.9079 25.8314 71.8804 25.6208C71.8804 25.6208 71.7615 24.9436 71.7339 24.8335C71.4593 23.6343 70.7178 22.7646 69.7108 22.078C69.5185 21.9499 69.3264 21.84 69.1339 21.7394C68.8777 21.6021 64.9413 20.3111 64.8407 20.2747C64.868 20.412 64.8771 20.5584 64.8864 20.723C65.4357 21.1076 67.0469 22.499 66.3146 25.0899C66.3146 25.0899 65.1518 23.7075 63.971 23.5336C62.8449 25.4927 60.9316 27.9827 59.8973 28.6326C58.8628 27.9828 56.9495 25.5019 55.8236 23.5337C54.6427 23.7076 53.4799 25.09 53.4799 25.09C52.7475 22.4901 54.3589 21.1077 54.9082 20.7231C54.9173 20.5584 54.9264 20.4121 54.9539 20.2748C54.853 20.3112 50.9166 21.6022 50.6605 21.7395C50.459 21.8402 50.2667 21.9499 50.0836 22.0781C49.6901 22.3436 49.3421 22.6365 49.04 22.966C49.2782 23.0669 49.4795 23.1584 49.6444 23.2315C49.7084 23.259 49.9006 23.3506 50.0746 23.4604C50.4865 23.7076 50.8893 24.083 51.3287 24.6322C51.7682 25.1907 51.9145 25.4561 51.9879 25.6301C52.0976 25.8772 52.1892 26.1427 52.2534 26.4082C52.6287 27.5525 53.251 29.4566 53.6265 30.8024C55.7137 30.8024 57.81 30.8024 59.8973 30.8024C62.9275 30.8024 65.9575 30.8024 68.9877 30.8024C69.8939 30.8024 70.663 30.5278 71.3038 29.8503C71.7982 29.3193 71.9446 28.6876 71.9813 28.001C71.9904 27.8821 71.9995 27.3602 71.9995 27.3602C71.9995 27.3602 71.9537 26.2616 71.9537 26.2525Z" fill="#ECBB79"/>
<path d="M52.7659 13.894C52.8574 14.2328 52.9214 14.5532 52.9214 14.8553C52.9214 14.956 52.9123 15.0567 52.894 15.1574C52.8116 15.4412 52.2075 16.4115 52.1066 16.5763C53.1777 17.7298 54.5876 17.9953 55.979 18.2882C56.391 18.3706 56.8121 18.4255 57.2606 18.4804C57.4071 18.508 57.5535 18.5356 57.7001 18.5628L56.9952 20.6318C56.9952 20.6318 56.9769 23.6527 59.8972 25.493H59.9154C62.8357 23.6527 62.8173 20.6318 62.8173 20.6318L62.1125 18.5628C62.259 18.5355 62.4054 18.5079 62.552 18.4804C63.0004 18.4255 63.4217 18.3707 63.8336 18.2882C65.2251 17.9953 66.6441 17.7298 67.706 16.5763C67.6053 16.4115 67.0012 15.4412 66.9187 15.1574C66.9005 15.0567 66.8911 14.956 66.8911 14.8553C66.8911 14.5532 66.9463 14.2328 67.0469 13.894C67.1384 13.5736 67.2391 13.2532 67.3397 12.9237C67.8158 11.8709 68.0721 10.7083 68.0721 9.47243C68.0721 4.90434 64.4378 1.18762 59.9246 1.10522H59.9154H59.9063C55.393 1.18762 51.7588 4.90434 51.7588 9.47243C51.7588 10.6991 52.0243 11.8709 52.4911 12.9237C52.5737 13.2532 52.6743 13.5736 52.7659 13.894Z" fill="#ECBB79"/>
</svg>
