<svg width="14" height="12" viewBox="0 0 14 12" fill="none" xmlns="http://www.w3.org/2000/svg">
<path d="M7.0001 12C6.79938 11.9997 6.60338 11.9391 6.4376 11.8259C3.98167 10.1587 2.91823 9.01562 2.33167 8.30094C1.08167 6.7775 0.483228 5.21344 0.500103 3.51969C0.51979 1.57875 2.07698 0 3.97135 0C5.34885 0 6.30292 0.775938 6.85854 1.42219C6.87614 1.44245 6.89789 1.4587 6.92231 1.46984C6.94673 1.48098 6.97326 1.48674 7.0001 1.48674C7.02694 1.48674 7.05347 1.48098 7.0779 1.46984C7.10232 1.4587 7.12406 1.44245 7.14167 1.42219C7.69729 0.775313 8.65135 0 10.0289 0C11.9232 0 13.4804 1.57875 13.5001 3.52C13.517 5.21406 12.9179 6.77813 11.6685 8.30125C11.082 9.01594 10.0185 10.1591 7.5626 11.8263C7.39679 11.9393 7.20079 11.9998 7.0001 12Z" fill="#ECBB79"/>
</svg>
