<svg width="6" height="12" viewBox="0 0 6 12" fill="none" xmlns="http://www.w3.org/2000/svg">
<path d="M4.05021 0.399994C3.77173 0.399994 3.50466 0.510618 3.30775 0.707532C3.11084 0.904445 3.00021 1.17152 3.00021 1.44999C3.00021 1.72847 3.11084 1.99554 3.30775 2.19246C3.50466 2.38937 3.77173 2.49999 4.05021 2.49999C4.32869 2.49999 4.59576 2.38937 4.79267 2.19246C4.98959 1.99554 5.10021 1.72847 5.10021 1.44999C5.10021 1.17152 4.98959 0.904445 4.79267 0.707532C4.59576 0.510618 4.32869 0.399994 4.05021 0.399994ZM3.79821 3.73899C2.96521 3.80899 0.690211 5.62199 0.690211 5.62199C0.55021 5.72699 0.592211 5.71999 0.704211 5.91599C0.816211 6.10499 0.802211 6.11899 0.935211 6.02799C1.07521 5.93699 1.30621 5.78999 1.69121 5.55199C3.17521 4.59999 1.92921 6.79799 1.29221 10.501C1.04021 12.335 2.69221 11.39 3.11921 11.11C3.53921 10.837 4.66621 10.06 4.77821 9.983C4.93221 9.87799 4.82021 9.79399 4.70121 9.61899C4.61721 9.49999 4.53321 9.58399 4.53321 9.58399C4.07821 9.885 3.24521 10.515 3.13321 10.116C3.00021 9.71699 3.85421 6.97999 4.32321 5.09699C4.40021 4.64899 4.61021 3.66899 3.79821 3.73899Z" fill="#E7AA59"/>
</svg>
