<svg width="20" height="20" viewBox="0 0 20 20" fill="none" xmlns="http://www.w3.org/2000/svg">
<path d="M11.78 14.1838L9.035 13.5863V12.775C9.17875 12.5675 9.3125 12.3025 9.45125 12.0275C9.555 11.8225 9.71125 11.5125 9.77625 11.4388C10.2225 11.0025 10.6975 10.46 10.845 9.74375C10.9925 9.03 10.8062 8.66375 10.6987 8.52C10.6987 8.0175 10.6987 7.10125 10.5237 6.42875C10.5037 5.6175 10.345 5.135 9.96375 4.72C9.6775 4.41 9.27375 4.3425 8.95 4.2875C8.845 4.27 8.6875 4.24375 8.64 4.22C8.09375 3.91625 7.53875 3.7675 6.85125 3.75C5.46375 3.8025 3.75875 4.68625 3.1875 6.27125C3.025 6.72125 3.025 7.39375 3.04 8.16375L3.03875 8.46875C2.93875 8.665 2.7525 9.03125 2.9 9.74375C3.0475 10.4613 3.5225 11.0038 3.965 11.4363C4.03375 11.5138 4.1925 11.825 4.2975 12.0312C4.4375 12.305 4.57125 12.5688 4.715 12.775V13.5863L1.97 14.1838C0.82875 14.43 0 15.4575 0 16.6262V18.125C0 18.47 0.28 18.75 0.625 18.75H13.125C13.47 18.75 13.75 18.47 13.75 18.125V16.6262C13.75 15.4575 12.9212 14.43 11.78 14.1838Z" fill="#ECBB79"/>
<path d="M18.0425 11.8763L15.3125 11.2688V10.4175C17.4562 10.2037 17.9175 9.76 17.9175 9.16625C17.9175 7.76125 16.9975 4.53625 16.8312 3.9675C16.81 3.13 16.6525 2.65375 16.2612 2.2325C15.9725 1.91875 15.5637 1.85 15.235 1.79375C15.1275 1.775 14.965 1.7475 14.9125 1.72125C14.3425 1.4125 13.7775 1.2625 13.0987 1.25C11.9275 1.2975 10.48 1.91625 9.69873 3.17875C10.075 3.285 10.5112 3.47 10.8825 3.8725C11.455 4.49625 11.7237 5.215 11.7687 6.25875C11.9162 6.9175 11.9437 7.6725 11.9487 8.20875C12.1175 8.60625 12.235 9.19625 12.07 9.9975C11.8662 10.9862 11.2762 11.7063 10.7512 12.2325C10.6937 12.3363 10.6225 12.4812 10.5687 12.5887C10.5612 12.605 10.5525 12.6187 10.545 12.635L12.045 12.9613C13.6325 13.305 14.8037 14.6575 14.9675 16.25H19.375C19.72 16.25 20 15.97 20 15.625V14.3162C20 13.1363 19.195 12.1325 18.0425 11.8763Z" fill="#ECBB79"/>
</svg>
