<svg width="32" height="32" viewBox="0 0 32 32" fill="none" xmlns="http://www.w3.org/2000/svg">
<g clip-path="url(#clip0)">
<path d="M0 29.3333H18.6667V31.9999H0V29.3333Z" fill="#ECBB79"/>
<path d="M16.0003 26.6449C16.0003 26.2913 15.8599 25.9522 15.6098 25.7021C15.3598 25.4521 15.0206 25.3116 14.667 25.3116H4.00033C3.6467 25.3116 3.30757 25.4521 3.05752 25.7021C2.80747 25.9522 2.66699 26.2913 2.66699 26.6449V27.9999H16.0003V26.6449Z" fill="#ECBB79"/>
<path d="M18.142 15.7437C17.5208 16.4058 16.9998 17.1553 16.5957 17.9683L27.5704 28.943C27.8204 29.193 28.1595 29.3334 28.513 29.3334C28.8666 29.3334 29.2057 29.193 29.4557 28.943L31.3414 27.0573C31.4652 26.9335 31.5634 26.7865 31.6304 26.6248C31.6974 26.463 31.7319 26.2896 31.7319 26.1145C31.7319 25.9394 31.6974 25.766 31.6304 25.6043C31.5634 25.4425 31.4652 25.2955 31.3414 25.1717L20.3667 14.2C19.5522 14.6006 18.8023 15.1209 18.142 15.7437Z" fill="#ECBB79"/>
<path d="M11.5424 9.144C10.5341 10.0797 9.36689 10.828 8.0957 11.3537L14.987 18.245C15.5174 16.976 16.2664 15.81 17.2 14.8C18.2084 13.8643 19.3756 13.1159 20.6467 12.59L13.755 5.70001C13.2245 6.96853 12.4756 8.13418 11.5424 9.144Z" fill="#ECBB79"/>
<path d="M16.2548 0.660707L14.3694 2.54604C13.8488 3.06666 13.8488 3.91075 14.3694 4.43138L21.9108 11.9727C22.4314 12.4933 23.2755 12.4933 23.7961 11.9727L25.6814 10.0874C26.202 9.56676 26.202 8.72267 25.6814 8.20205L18.1401 0.660707C17.6195 0.140086 16.7754 0.140086 16.2548 0.660707Z" fill="#ECBB79"/>
<path d="M4.9403 11.9722L3.05497 13.8576C2.53435 14.3782 2.53435 15.2223 3.05497 15.7429L10.5963 23.2842C11.1169 23.8048 11.961 23.8048 12.4816 23.2842L14.367 21.3989C14.8876 20.8783 14.8876 20.0342 14.367 19.5136L6.82563 11.9722C6.30501 11.4516 5.46092 11.4516 4.9403 11.9722Z" fill="#ECBB79"/>
</g>
<defs>
<clipPath id="clip0">
<rect width="32" height="32" fill="white"/>
</clipPath>
</defs>
</svg>
