<svg width="12" height="12" viewBox="0 0 12 12" fill="none" xmlns="http://www.w3.org/2000/svg">
<path d="M9.76667 2.23335C9.27327 1.73659 8.68641 1.34239 8.03994 1.07351C7.39347 0.804621 6.70017 0.666357 6.00001 0.666688C3.05334 0.666688 0.67334 3.05335 0.67334 6.00002C0.67334 8.94669 3.05334 11.3334 6.00001 11.3334C8.48667 11.3334 10.56 9.63335 11.1533 7.33335H9.76667C9.49205 8.11303 8.98224 8.78827 8.30757 9.26591C7.6329 9.74355 6.82664 10.0001 6.00001 10C3.79334 10 2.00001 8.20669 2.00001 6.00002C2.00001 3.79335 3.79334 2.00002 6.00001 2.00002C7.10667 2.00002 8.09334 2.46002 8.81334 3.18669L6.66667 5.33335H11.3333V0.666688L9.76667 2.23335Z" fill="#ECBB79"/>
</svg>
